<?xml version="1.0" encoding="utf-8"?>
<!-- Generator: Adobe Illustrator 26.0.3, SVG Export Plug-In . SVG Version: 6.00 Build 0)  -->
<svg version="1.1" id="Calque_1" xmlns="http://www.w3.org/2000/svg" xmlns:xlink="http://www.w3.org/1999/xlink" x="0px" y="0px"
	 viewBox="0 0 2000 2000" style="enable-background:new 0 0 2000 2000;" xml:space="preserve">
<style type="text/css">
	.st0{fill:#FFFFFF;}
</style>
<path class="st0" d="M975.1,34.9l-220,18.8L525,293v175.5h460.3v58.5H352.2L64.6,760.3v467.9l244.7,233.4h158.3v-210.3l287.6-286
	H1215l230.2-233.9V293L1215,53.7L975.1,34.9L975.1,34.9L975.1,34.9z M726.2,176l86.4,88l-86.4,87.5L639.8,264L726.2,176L726.2,176
	L726.2,176z"/>
<path class="st0" d="M1533.4,561.9v204.4l-287.6,291.9H786l-230.2,233.9v438.4L786,1964.5h459.8l230.2-233.9v-175.4h-459.8v-58.5
	h690l230.2-233.4V795.3l-230.2-233.4L1533.4,561.9L1533.4,561.9z M1274.7,1672l86.4,87.5l-86.4,88l-86.4-88L1274.7,1672L1274.7,1672
	z"/>
</svg>
