<?xml version="1.0" encoding="utf-8"?>
<!-- Generator: Adobe Illustrator 26.0.1, SVG Export Plug-In . SVG Version: 6.00 Build 0)  -->
<svg version="1.1" xmlns="http://www.w3.org/2000/svg" xmlns:xlink="http://www.w3.org/1999/xlink" x="0px" y="0px"
	 viewBox="0 0 1018.33 893.12" enable-background="new 0 0 1018.33 893.12" xml:space="preserve">
<g id="Calque_1">
	<g>
		<path d="M151.45,887.73c-7.39,0-14.78-2.46-22.16-7.39L20.94,817.55c-14.78-8.62-20.93-19.7-20.93-36.94V518.35
			c0-17.24,6.16-28.32,20.93-36.94l337.37-194.54V166.21c0-17.24,13.54-30.78,30.78-30.78c17.24,0,30.78,13.54,30.78,30.78v131.75
			c0,17.24-6.16,28.32-20.93,36.94L61.57,529.43v240.1l88.65,50.48l222.86-129.28c4.93-2.46,9.85-3.69,16.01-3.69
			c17.24,0,30.78,13.54,30.78,30.78c0,12.31-6.16,22.16-16.01,27.09L171.15,879.11c-7.39,4.93-14.78,7.39-22.16,7.39L151.45,887.73z
			 M32.02,406.31c-17.24,0-30.78-13.54-30.78-30.78V105.88c0-17.24,6.16-28.32,20.93-36.94L135.45,3.68
			c4.92-2.46,9.85-3.69,16.01-3.69c17.24,0,30.78,13.54,30.78,30.78c0,12.31-6.16,22.16-16.01,27.09L62.8,118.19v258.57
			c0,17.24-13.54,30.78-30.78,30.78V406.31z M270.89,546.67c-17.24,0-30.78-13.54-30.78-30.78c0-12.31,6.16-22.16,16.01-27.09
			l222.86-129.28v-240.1l-88.65-50.48L182.24,189.6v65.26L253.65,213c4.92-2.46,9.85-3.69,16.01-3.69
			c17.24,0,30.78,13.54,30.78,30.78c0,12.31-6.16,22.16-16.01,27.09L165,336.12c-4.93,2.46-9.85,3.69-14.78,3.69
			c-20.93,0-32.01-18.47-32.01-32.01V176.06c0-17.24,6.16-28.32,20.93-36.94L366.92,7.38c7.39-4.92,14.78-7.39,22.16-7.39
			c7.39,0,14.78,2.46,22.16,7.39L519.6,70.17c14.78,8.62,20.93,19.7,20.93,36.94v262.26c0,17.24-6.16,28.32-20.93,36.94
			L286.89,540.51c-4.92,2.46-9.85,3.69-16.01,3.69V546.67z M390.32,891.42c-17.24,0-30.78-13.54-30.78-30.78
			c0-12.31,6.16-22.16,16.01-27.09l103.43-60.33V568.83L167.46,748.6c-4.93,2.46-9.85,3.69-14.78,3.69
			c-20.93,0-32.01-18.47-32.01-32.01v-137.9c0-17.24,13.54-30.78,30.78-30.78c17.24,0,30.78,13.54,30.78,30.78v83.73l311.51-179.76
			c4.92-2.46,9.85-3.69,14.77-3.69c17.24,0,32.01,13.54,32.01,30.78v269.65c0,17.24-6.16,28.32-20.93,36.94l-113.28,65.26
			c-4.92,2.46-9.85,3.69-16.01,3.69V891.42z"/>
	</g>
	<g>
		<path d="M631.72,888.2c-7.39,0-14.78-2.46-22.16-7.39l-108.35-62.79c-14.78-8.62-20.93-19.7-20.93-36.94V518.82
			c0-17.24,6.16-28.32,20.93-36.94l66.49-38.17l-66.49-38.17c-14.78-8.62-20.93-19.7-20.93-36.94V106.35
			c0-17.24,6.16-28.32,20.93-36.94L614.49,4.16c4.93-2.46,9.85-3.69,16.01-3.69c17.24,0,30.78,13.54,30.78,30.78
			c0,12.31-6.16,22.16-16.01,27.09l-103.43,60.33v240.1l103.43,60.33c12.31,7.39,16.01,20.93,16.01,28.32
			c0,11.08-6.16,20.93-16.01,27.09l-103.43,60.33v240.1l88.65,50.48l208.08-120.66V584.08c0-17.24,13.54-30.78,30.78-30.78
			c17.24,0,30.78,13.54,30.78,30.78v131.75c0,17.24-6.16,28.32-20.93,36.94L651.42,884.51c-7.39,4.92-14.78,7.39-22.16,7.39
			L631.72,888.2z M865.66,893.13c-17.24,0-30.78-13.54-30.78-30.78c0-12.31,6.16-22.16,16.01-27.09l103.43-60.33v-240.1
			L850.89,474.5c-12.31-7.39-16.01-20.93-16.01-28.32c0-11.08,6.16-20.93,16.01-27.09l103.43-60.33v-240.1l-88.65-50.48
			L657.58,188.84v120.66c0,17.24-13.54,30.78-30.78,30.78c-17.24,0-30.78-13.54-30.78-30.78V177.76c0-17.24,6.16-28.32,20.93-36.94
			L844.73,9.08c7.39-4.92,14.78-7.39,22.16-7.39s14.78,2.46,22.16,7.39l108.35,62.79c14.78,8.62,20.93,19.7,20.93,36.94v262.26
			c0,17.24-6.16,28.32-20.93,36.94l-66.49,38.17l66.49,38.17c14.78,8.62,20.93,19.7,20.93,36.94v262.26
			c0,17.24-6.16,28.32-20.93,36.94l-113.28,65.26c-4.92,2.46-9.85,3.69-16.01,3.69L865.66,893.13z M629.26,755.22
			c-17.24,0-32.01-13.54-32.01-30.78V592.7c0-17.24,6.16-28.32,20.93-36.94l113.28-65.26c4.92-2.46,9.85-3.69,16.01-3.69
			c17.24,0,30.78,13.54,30.78,30.78c0,12.31-6.16,22.16-16.01,27.09l-103.43,60.33v65.26l71.41-41.86
			c4.92-2.46,9.85-3.69,16.01-3.69c17.24,0,30.78,13.54,30.78,30.78c0,12.31-6.16,22.16-16.01,27.09l-119.43,68.95
			c-4.92,2.46-9.85,3.69-14.77,3.69H629.26z M753.62,406.78c-20.93,0-32.01-18.47-32.01-32.01V243.02
			c0-17.24,6.16-28.32,20.93-36.94l113.28-65.26c4.92-2.46,9.85-3.69,16.01-3.69c17.24,0,30.78,13.54,30.78,30.78
			c0,12.31-6.16,22.16-16.01,27.09l-103.43,60.33v65.26l71.41-41.86c4.92-2.46,9.85-3.69,16.01-3.69
			c17.24,0,30.78,13.54,30.78,30.78c0,12.31-6.16,22.16-16.01,27.09l-119.43,68.95c-4.92,2.46-9.85,3.69-14.77,3.69L753.62,406.78z"
			/>
	</g>
</g>
<g id="Calque_2">
	<g>
	</g>
	<g>
	</g>
	<g>
	</g>
	<g>
	</g>
	<g>
	</g>
	<g>
	</g>
</g>
</svg>
